<?xml version="1.0" encoding="UTF-8" standalone="no"?>
<!-- Created with Inkscape (http://www.inkscape.org/) -->

<svg
   xmlns:dc="http://purl.org/dc/elements/1.1/"
   xmlns:cc="http://creativecommons.org/ns#"
   xmlns:rdf="http://www.w3.org/1999/02/22-rdf-syntax-ns#"
   xmlns:svg="http://www.w3.org/2000/svg"
   xmlns="http://www.w3.org/2000/svg"
   xmlns:sodipodi="http://sodipodi.sourceforge.net/DTD/sodipodi-0.dtd"
   xmlns:inkscape="http://www.inkscape.org/namespaces/inkscape"
   width="720"
   height="576"
   id="svg3544"
   version="1.1"
   inkscape:version="0.91 r13725"
   viewBox="0 0 720 576"
   sodipodi:docname="logo1.7.svg">
  <defs
     id="defs3546" />
  <sodipodi:namedview
     id="base"
     pagecolor="#ffffff"
     bordercolor="#666666"
     borderopacity="1.0"
     inkscape:pageopacity="0.0"
     inkscape:pageshadow="2"
     inkscape:zoom="0.6"
     inkscape:cx="360"
     inkscape:cy="290"
     inkscape:document-units="px"
     inkscape:current-layer="layer1"
     showgrid="false"
     inkscape:window-width="1440"
     inkscape:window-height="781"
     inkscape:window-x="-1"
     inkscape:window-y="0"
     inkscape:window-maximized="0" />
  <metadata
     id="metadata3549">
    <rdf:RDF>
      <cc:Work
         rdf:about="">
        <dc:format>image/svg+xml</dc:format>
        <dc:type
           rdf:resource="http://purl.org/dc/dcmitype/StillImage" />
        <dc:title></dc:title>
      </cc:Work>
    </rdf:RDF>
  </metadata>
  <g
     id="layer1"
     inkscape:label="Layer 1"
     inkscape:groupmode="layer">
    <path
       style="fill:#00d4aa"
       d="m 349,466.51392 c -17.0885,-3.8246 -40.28193,-14.45492 -53.31124,-24.4343 -9.90633,-7.58745 -29.15923,-28.10322 -36.03262,-38.39614 -40.90018,-61.24811 -37.89643,-141.06972 7.13906,-189.71342 8.18002,-8.8354 9.71619,-9.86679 10.75668,-7.22207 2.95985,7.52338 1.4821,14.40389 -4.92561,22.9339 -8.23912,10.96801 -14.29161,23.96439 -18.78077,40.3275 -3.072,11.19753 -3.47453,16.04461 -2.75189,33.13669 1.4754,34.89666 13.1858,61.55307 37.73846,85.90417 21.36353,21.18815 39.70839,30.24962 67.51789,33.35055 18.82178,2.09877 33.54377,-0.58987 51.90371,-9.47897 51.77413,-25.06685 71.26816,-94.80788 42.98468,-153.78018 -19.35378,-40.35346 -60.20917,-68.33516 -99.93695,-68.44642 l -10.19859,-0.0286 -1.00004,-6.16249 c -0.55001,-3.38936 -0.57748,-6.57686 -0.061,-7.08333 0.51644,-0.50647 7.92802,-0.79676 16.47017,-0.64509 55.17977,0.97973 107.80081,41.46593 129.61434,99.72424 9.19808,24.56574 10.2728,31.24478 10.32493,64.16667 0.0535,33.82068 -1.25396,40.91346 -11.21431,60.83333 -14.63839,29.27553 -46.0582,53.49653 -82.34155,63.47572 -13.6977,3.76733 -40.51563,4.53273 -53.89532,1.5382 z"
       id="path3352"
       inkscape:connector-curvature="0" />
    <path
       style="fill:#00d4aa"
       d="m 333.10823,362.6298 c -11.93817,-4.45145 -15.31218,-6.46797 -23.59202,-14.10005 -10.70868,-9.87092 -18.40586,-24.64987 -20.48938,-39.34055 -1.80112,-12.69958 -0.30159,-28.44742 3.36035,-35.2898 2.12334,-3.96752 1.99067,-5.17567 -3.10041,-28.23273 -6.97888,-31.60679 -8.96579,-46.9582 -7.87358,-60.83334 2.86439,-36.3882 7.49493,-54.17977 19.95373,-76.66666 8.50653,-15.35344 31.12132,-37.801612 46.56888,-46.22577 35.16429,-19.17647 83.73549,-29.840761 112.1271,-24.618623 17.96898,3.30508 48.07493,12.868301 60.99743,19.37597 10.63695,5.356681 30.73274,21.730905 28.90864,23.555006 -0.4041,0.404095 -3.97492,-1.487866 -7.93517,-4.204358 C 499.29295,46.731279 444.65348,39.156894 405.14194,57.072285 381.95278,67.58675 358.30621,87.38116 348.07122,104.84585 c -6.45917,11.02173 -14.40906,35.44801 -15.36052,47.19564 -0.50933,6.2887 0.26992,17.04691 1.93156,26.66666 1.53193,8.86885 3.93936,22.70857 5.34984,30.75493 3.53685,20.17669 10.89976,42.54667 13.69214,41.59945 1.20134,-0.4075 8.71255,5.89922 16.69158,14.01494 19.7847,20.12365 26.14421,32.66526 26.07494,51.42253 -0.0426,11.53988 -0.70314,14.52572 -4.91067,22.19808 -11.92607,21.74702 -36.88073,31.9676 -58.43186,23.93172 z"
       id="path3354"
       inkscape:connector-curvature="0" />
    <path
       style="fill:#00d4aa"
       d="m 441.91258,160.55109 c -18.08874,-9.5492 -21.46994,-36.07065 -6.50632,-51.03427 14.5751,-14.575109 37.94621,-9.45611 47.10063,10.31651 4.34415,9.38291 3.92837,17.31477 -1.44697,27.60435 -7.86936,15.06368 -24.74491,20.71658 -39.14734,13.11341 z"
       id="path3356"
       inkscape:connector-curvature="0" />
    <path
       style="fill:#00d4aa"
       d="m 541.5,164.1351 c -7.78778,-1.90479 -11.98151,-4.67774 -16.97426,-11.22356 -3.75588,-4.92421 -4.72894,-8.15305 -5.25321,-17.43138 -0.55609,-9.84153 -0.0747,-12.35814 3.54524,-18.53517 10.77135,-18.379923 34.79682,-19.601958 48.48868,-2.46634 7.10371,8.89042 8.08273,23.65097 2.2897,34.52135 -6.00811,11.27397 -20.30966,18.01794 -32.09615,15.1351 z"
       id="path3358"
       inkscape:connector-curvature="0" />
    <path
       style="fill:#00d4aa"
       d="m 698.16667,514.52362 c -8.79885,-1.99657 -19.59574,-6.94312 -32.70959,-14.98577 -19.64413,-12.04763 -19.07896,-11.93422 -23.35503,-4.6868 -3.61973,6.135 -3.70788,6.17212 -12.95662,5.45612 -7.08761,-0.54869 -14.886,-3.36602 -32.64543,-11.7938 -32.9998,-15.66015 -63.38916,-24.96582 -93.22507,-28.54692 -9.56029,-1.14748 -15.9416,-4.77112 -15.9416,-9.05247 0,-4.68631 9.32739,-17.63145 19.21585,-26.66895 6.78029,-6.1968 13.59289,-10.12561 27.79938,-16.0319 34.75628,-14.44975 48.32098,-21.76908 59.74631,-32.23831 12.1902,-11.17012 17.93415,-20.61002 23.24106,-38.19556 3.19805,-10.59742 3.56205,-15.02834 3.01214,-36.66667 -0.83172,-32.72732 -3.38109,-40.86859 -17.13896,-54.73229 -11.46809,-11.55631 -23.68378,-18.01229 -41.4468,-21.90458 -13.89835,-3.04545 -13.86706,-3.04469 -26.92898,-0.65662 -5.5,1.00554 -15.40058,1.8326 -22.0013,1.83791 -22.82939,0.0184 -37.16873,-5.49765 -42.16536,-16.22005 -1.375,-2.95065 -3.72067,-5.38105 -5.2126,-5.40089 -3.92845,-0.0522 -6.89768,-4.34612 -5.67318,-8.20417 2.14815,-6.76823 12.55244,-5.64647 12.55244,1.35336 0,2.86439 12.56617,11.2933 23.76017,15.93744 10.21663,4.23864 24.10246,4.94854 36.26543,1.85403 15.48998,-3.94096 36.18001,-14.67337 47.16891,-24.46762 5.20969,-4.64332 9.47216,-7.77924 9.47216,-6.96872 0,0.81052 -2.1185,4.80801 -4.70778,8.88331 -5.19681,8.17931 -14.3186,16.79202 -21.98138,20.7546 -6.08473,3.14654 -6.53851,4.66602 -0.73446,2.45933 12.37778,-4.70603 50.7557,19.60538 65.7088,41.6248 23.64825,34.82359 23.85184,72.35364 0.59535,109.75487 -18.73645,30.13212 -42.31746,48.12437 -92.11411,70.28285 -10.4868,4.66642 -20.04104,9.29285 -21.23165,10.28097 -4.09332,3.39715 -0.61096,4.28368 8.02608,2.04326 6.66574,-1.72906 19.51145,-2.05556 55.96814,-1.42253 26.02421,0.45187 50.38859,1.51178 54.14308,2.35537 7.958,1.78805 13.10025,6.3611 15.63248,13.90213 1.58952,4.73357 3.27777,5.89017 14.16667,9.70543 21.49866,7.53275 38.85866,15.34692 42.75836,19.24662 4.46369,4.46368 5.0097,13.07758 1.17592,18.55108 -1.42698,2.0373 -3.11448,3.61719 -3.75,3.51085 -0.63553,-0.10633 -2.6555,-0.5337 -4.48883,-0.94971 z"
       id="path3360"
       inkscape:connector-curvature="0" />
    <text
       xml:space="preserve"
       style="font-style:normal;font-weight:normal;font-size:63.13957214px;line-height:125%;font-family:sans-serif;letter-spacing:0px;word-spacing:0px;fill:#000000;fill-opacity:1;stroke:none;stroke-width:1px;stroke-linecap:butt;stroke-linejoin:miter;stroke-opacity:1"
       x="6.2091923"
       y="386"
       id="text3367"
       sodipodi:linespacing="125%"><tspan
         sodipodi:role="line"
         id="tspan3369"
         x="6.2091923"
         y="386"
         style="font-style:normal;font-variant:normal;font-weight:bold;font-stretch:normal;font-family:sans-serif;-inkscape-font-specification:'sans-serif Bold'">PRIME</tspan></text>
    <text
       xml:space="preserve"
       style="font-style:italic;font-variant:normal;font-weight:normal;font-stretch:normal;font-size:67.23529053px;line-height:125%;font-family:sans-serif;-inkscape-font-specification:'sans-serif Italic';letter-spacing:0px;word-spacing:0px;fill:#000000;fill-opacity:1;stroke:none;stroke-width:1px;stroke-linecap:butt;stroke-linejoin:miter;stroke-opacity:1"
       x="14.871372"
       y="445.61435"
       id="text3371"
       sodipodi:linespacing="125%"><tspan
         sodipodi:role="line"
         id="tspan3373"
         x="14.871372"
         y="445.61435"
         style="font-style:italic;font-variant:normal;font-weight:normal;font-stretch:normal;font-family:sans-serif;-inkscape-font-specification:'sans-serif Italic';fill:#666666">SOUND</tspan></text>
  </g>
</svg>
