<?xml version="1.0" encoding="UTF-8" standalone="no"?>
<!-- Created with Inkscape (http://www.inkscape.org/) -->

<svg
   xmlns:dc="http://purl.org/dc/elements/1.1/"
   xmlns:cc="http://creativecommons.org/ns#"
   xmlns:rdf="http://www.w3.org/1999/02/22-rdf-syntax-ns#"
   xmlns:svg="http://www.w3.org/2000/svg"
   xmlns="http://www.w3.org/2000/svg"
   xmlns:sodipodi="http://sodipodi.sourceforge.net/DTD/sodipodi-0.dtd"
   xmlns:inkscape="http://www.inkscape.org/namespaces/inkscape"
   width="210mm"
   height="297mm"
   viewBox="0 0 744.09448819 1052.3622047"
   id="svg2"
   version="1.1"
   inkscape:version="0.91 r13725"
   sodipodi:docname="logo1.1.svg">
  <defs
     id="defs4" />
  <sodipodi:namedview
     id="base"
     pagecolor="#ffffff"
     bordercolor="#666666"
     borderopacity="1.0"
     inkscape:pageopacity="0.0"
     inkscape:pageshadow="2"
     inkscape:zoom="0.5"
     inkscape:cx="312.53348"
     inkscape:cy="563.54911"
     inkscape:document-units="px"
     inkscape:current-layer="layer1"
     showgrid="false"
     inkscape:window-width="1440"
     inkscape:window-height="781"
     inkscape:window-x="0"
     inkscape:window-y="1"
     inkscape:window-maximized="1"
     inkscape:snap-grids="true"
     inkscape:snap-text-baseline="false" />
  <metadata
     id="metadata7">
    <rdf:RDF>
      <cc:Work
         rdf:about="">
        <dc:format>image/svg+xml</dc:format>
        <dc:type
           rdf:resource="http://purl.org/dc/dcmitype/StillImage" />
        <dc:title />
      </cc:Work>
    </rdf:RDF>
  </metadata>
  <g
     inkscape:label="Layer 1"
     inkscape:groupmode="layer"
     id="layer1">
    <path
       style="fill:#5fd3bc"
       d="m 327.30603,467.50772 c -1.31259,-4.86432 -4.53169,-20.34905 -5.813,-27.96208 -1.25817,-7.47552 -1.33896,-8.81941 -1.07791,-17.93021 0.2979,-10.39673 1.58654,-20.2908 3.35494,-25.75889 0.2246,-0.69448 0.70153,-2.28547 1.05984,-3.53553 0.35831,-1.25007 0.83924,-2.48877 1.06873,-2.75267 0.22949,-0.2639 0.41725,-0.89202 0.41725,-1.39581 0,-0.50379 0.21591,-1.31065 0.47981,-1.79302 0.26389,-0.48237 1.4443,-2.92259 2.62313,-5.42272 1.17883,-2.50013 2.27017,-4.65933 2.42519,-4.79822 0.15502,-0.1389 0.60401,-0.87757 0.99775,-1.6415 0.39374,-0.76393 0.90476,-1.38896 1.13561,-1.38896 0.23085,0 0.41973,-0.343 0.41973,-0.76221 0,-0.41922 0.68186,-1.47571 1.51523,-2.34775 0.83338,-0.87205 1.51523,-1.7753 1.51523,-2.00721 0,-0.87553 9.10002,-10.09255 12.87944,-13.04505 1.11117,-0.86804 2.40067,-1.89251 2.86555,-2.27659 2.09906,-1.73422 10.01679,-6.14109 14.9513,-8.32163 6.24918,-2.76148 15.63947,-6.08982 17.18128,-6.08982 0.58037,0 1.18084,-0.20328 1.3344,-0.45173 0.15354,-0.24844 1.13291,-0.58065 2.17637,-0.73823 1.04347,-0.15758 2.80634,-0.42297 3.91751,-0.58975 1.11117,-0.16678 2.47488,-0.50546 3.03046,-0.75263 0.55558,-0.24717 2.26022,-0.57792 3.78807,-0.73501 2.65561,-0.27304 6.80876,-0.75012 13.38452,-1.53749 8.47729,-1.01506 33.34467,5.03245 46.46476,11.29978 6.79734,3.24702 10.49517,5.80964 15.27183,10.5835 3.53219,3.53011 6.2813,7.16522 5.41881,7.16522 -0.32395,0 -3.27461,-1.95899 -3.76833,-2.50185 -0.13889,-0.15273 -0.87757,-0.59983 -1.64149,-0.99357 -0.76393,-0.39374 -1.38896,-0.90477 -1.38896,-1.13562 0,-0.23085 -0.24316,-0.41972 -0.54034,-0.41972 -0.2972,0 -1.53139,-0.68186 -2.74266,-1.51523 -1.21127,-0.83338 -2.44546,-1.51523 -2.74265,-1.51523 -0.29719,0 -0.54115,-0.17047 -0.54214,-0.37881 -0.001,-0.20834 -1.25024,-0.94702 -2.77612,-1.6415 -1.52588,-0.69448 -2.77514,-1.43315 -2.77613,-1.6415 -0.001,-0.20834 -0.32124,-0.3788 -0.71168,-0.3788 -0.39043,0 -1.69732,-0.48684 -2.90419,-1.08187 -1.20686,-0.59503 -2.70569,-1.27689 -3.33072,-1.51523 -2.10349,-0.80214 -3.90865,-1.55847 -4.79137,-2.00752 -0.48237,-0.24538 -1.32127,-0.44615 -1.86423,-0.44615 -0.54296,0 -1.11147,-0.20107 -1.26336,-0.44684 -0.15189,-0.24576 -0.90398,-0.5727 -1.67131,-0.72654 -0.76733,-0.15383 -2.41792,-0.53339 -3.66798,-0.84346 -9.17377,-2.27552 -18.34813,-3.18009 -25.25382,-2.48998 -2.91681,0.29149 -6.00129,0.74292 -6.85439,1.00317 -0.8531,0.26026 -2.26021,0.4732 -3.12691,0.4732 -0.86671,0 -1.7163,0.22728 -1.88799,0.50507 -0.17169,0.2778 -0.96718,0.50508 -1.76777,0.50508 -0.80058,0 -1.59608,0.22728 -1.76776,0.50508 -0.17169,0.27779 -0.7564,0.50507 -1.29936,0.50507 -0.54296,0 -1.38186,0.20262 -1.86422,0.45027 -0.48237,0.24765 -3.34696,1.61805 -6.36575,3.04532 -8.24088,3.89627 -15.28566,8.91062 -22.03794,15.68621 -6.27769,6.29937 -9.24485,10.85855 -12.86893,19.77378 -5.37303,13.21761 -6.25296,22.52209 -3.30092,34.90423 0.57851,2.4265 1.1469,5.94941 1.2631,7.82868 0.1162,1.87928 0.42797,4.43964 0.69284,5.68971 0.26486,1.25006 0.83961,4.3184 1.27722,6.81853 0.91497,5.22743 2.07459,9.35978 4.29712,15.31301 1.89175,5.06717 1.90833,5.5157 0.31977,8.65057 -1.56364,3.08568 -3.06703,4.15596 -7.84264,5.58326 -3.22123,0.96274 -5.35115,1.1693 -14.23369,1.38037 l -10.44562,0.24822 -0.59451,-2.2032 z"
       id="path3463"
       inkscape:connector-curvature="0" />
    <path
       style="fill:#5fd3bc"
       d="m 356.10125,526.70584 c -5.59731,-0.76707 -12.8399,-3.91496 -16.19143,-7.03738 -0.63663,-0.59311 -1.34792,-1.07838 -1.58064,-1.07838 -0.56356,0 -4.94223,-4.39668 -4.94223,-4.96256 0,-0.24391 -0.68185,-1.15696 -1.51523,-2.029 -0.83337,-0.87205 -1.51523,-1.9096 -1.51523,-2.30567 0,-0.39607 -0.17825,-0.79588 -0.39611,-0.88848 -0.63158,-0.26843 -3.6445,-6.47344 -3.6445,-7.50571 0,-0.51523 -0.20217,-1.06174 -0.44927,-1.21445 -0.95904,-0.59273 -2.2063,-11.25495 -1.80607,-15.43932 0.33567,-3.50945 1.06512,-7.19347 1.75011,-8.83883 0.2313,-0.55559 3.22282,-8.76308 3.56123,-9.59646 12.52499,-13.36924 17.14705,9.69027 33.81457,-7.39357 l 3.83108,3.16896 c 4.7281,3.91095 11.07609,10.56843 14.04694,14.73177 2.93966,4.11964 6.08363,10.48209 7.08032,14.32842 0.88705,3.42325 1.08648,11.54613 0.29547,12.03499 -0.27779,0.17169 -0.50507,1.08083 -0.50507,2.02031 0,0.93948 -0.22729,1.84862 -0.50508,2.0203 -0.27779,0.17169 -0.50508,0.86696 -0.50508,1.54504 0,0.67809 -0.22728,1.23288 -0.50507,1.23288 -0.27779,0 -0.50508,0.45457 -0.50508,1.01016 0,0.55558 -0.22728,1.01015 -0.50507,1.01015 -0.2778,0 -0.50508,0.24315 -0.50508,0.54034 0,1.62551 -5.21106,7.6209 -8.5863,9.87865 -6.11544,4.09072 -13.11421,5.74125 -20.21718,4.76784 z"
       id="path3465"
       inkscape:connector-curvature="0"
       sodipodi:nodetypes="sssssscscssccssscscsssssss" />
    <ellipse
       style="fill:#5fd3bc"
       id="path3467"
       cx="422.49628"
       cy="390.45975"
       rx="17.930208"
       ry="18.940361" />
    <ellipse
       ry="18.940361"
       rx="17.930208"
       cy="390.96481"
       cx="476.53943"
       id="ellipse3509"
       style="fill:#5fd3bc" />
    <circle
       style="fill:#5fd3bc"
       id="path3639"
       cx="428.80975"
       cy="428.59302"
       r="4.5456862" />
    <circle
       style="fill:#5fd3bc"
       id="path3641"
       cx="501.54074"
       cy="416.97626"
       r="2.5253813" />
    <path
       style="fill:#5fd3bc"
       d="m 433.86052,429.60316 c 0,0 15.15229,15.65736 37.37564,7.57614 22.22336,-8.08122 28.28427,-18.18274 28.28427,-18.18274 l 2.02031,1.01015 c 0,0 -4.54569,11.11168 -14.14214,16.66752 -9.59645,5.55584 -13.63706,9.09137 -35.35534,8.58629 -21.71828,-0.50507 -22.22335,-12.6269 -22.22335,-12.6269 z"
       id="path3657"
       inkscape:connector-curvature="0" />
    <path
       style="fill:#5fd3bc"
       d=""
       id="path3659"
       inkscape:connector-curvature="0" />
    <path
       style="fill:#5fd3bc"
       d="m 351.5697,525.47722 c -11.54282,-3.4736 -19.8143,-11.34617 -24.80432,-23.60809 -1.95782,-4.81091 -2.63392,-9.5796 -2.35498,-16.6102 0.19143,-4.82514 0.50837,-6.63668 1.86613,-10.66646 l 1.63553,-4.85419 -2.03925,-9.0354 c -2.4613,-10.90547 -4.89913,-24.31922 -5.35972,-29.491 -0.45343,-5.09147 0.54306,-20.92037 1.75788,-27.92308 2.62406,-15.12624 9.70703,-29.77952 19.38685,-40.10763 10.94888,-11.68216 22.97359,-18.53002 44.03372,-25.07642 1.40502,-0.43674 3.56422,-0.94193 4.79823,-1.12264 1.234,-0.18071 3.38006,-0.63827 4.76902,-1.0168 3.53907,-0.96448 15.14977,-2.23315 20.43748,-2.23315 13.4796,0 41.2021,8.37377 51.75136,15.63186 4.47748,3.08059 12.96053,11.76661 12.2174,12.50973 -0.12557,0.12557 -2.23567,-1.1252 -4.68909,-2.7795 -4.24752,-2.86402 -5.65629,-3.72328 -11.56921,-7.05645 -3.5481,-2.00011 -14.57533,-6.68889 -15.73116,-6.68889 -0.52223,0 -1.19544,-0.24593 -1.49603,-0.54652 -0.63419,-0.63419 -6.95402,-2.12811 -13.68393,-3.23469 -2.57649,-0.42365 -7.7143,-0.78246 -11.41735,-0.79736 -11.60608,-0.0467 -20.87712,2.13817 -30.96196,7.29669 -15.15713,7.75307 -26.49032,18.38959 -32.03252,30.06346 -5.64535,11.89112 -8.10541,22.80648 -7.06847,31.36311 0.49665,4.09835 2.54071,15.93926 2.96444,17.17259 0.14316,0.41669 0.21412,1.34855 0.15769,2.07081 -0.18779,2.40358 2.99563,16.78772 5.0262,22.7106 1.10138,3.21257 2.0025,6.45138 2.0025,7.19734 0,1.35394 0.67201,1.80696 1.2627,0.85121 0.17168,-0.27779 0.62261,-0.50507 1.00207,-0.50507 0.99701,0 13.97218,12.67324 16.72905,16.33976 2.59886,3.45639 6.19848,10.35162 7.4221,14.21735 3.12514,9.8731 0.25968,20.87182 -7.50423,28.80408 -3.89621,3.9807 -8.77269,6.73266 -13.75951,7.76497 -4.38256,0.90722 -10.48747,0.6423 -14.74862,-0.64002 z"
       id="path3665"
       inkscape:connector-curvature="0" />
    <path
       style="fill:#5fd3bc"
       d="m 368.48975,587.2093 c -2.77792,-0.18854 -5.73261,-0.49352 -6.56599,-0.67775 -8.77939,-1.94079 -13.9799,-3.74757 -20.91658,-7.26691 -4.29989,-2.18156 -10.97552,-6.2576 -11.66084,-7.11992 -0.1389,-0.17477 -1.04537,-0.87224 -2.01439,-1.54994 -6.07117,-4.24598 -18.28213,-17.8297 -21.32325,-23.72043 -0.35853,-0.69448 -0.76588,-1.37634 -0.90522,-1.51523 -0.7065,-0.70426 -5.88438,-10.88872 -7.12581,-14.01587 -1.08849,-2.74192 -1.60827,-3.97159 -2.02529,-4.79137 -0.24538,-0.48237 -0.44615,-1.32127 -0.44615,-1.86422 0,-0.54297 -0.22729,-1.12767 -0.50508,-1.29936 -0.27779,-0.17168 -0.50507,-0.96718 -0.50507,-1.76777 0,-0.80058 -0.20218,-1.58056 -0.44927,-1.73327 -0.43322,-0.26775 -0.78611,-1.81566 -1.38961,-6.09541 -0.15669,-1.11117 -0.4889,-2.23622 -0.73824,-2.50013 -0.24934,-0.2639 -0.45334,-1.89829 -0.45334,-3.63199 0,-1.73369 -0.22729,-3.29264 -0.50508,-3.46433 -0.30795,-0.19033 -0.50507,-4.04585 -0.50507,-9.87879 0,-6.04104 0.18613,-9.56664 0.50507,-9.56664 0.28444,0 0.50508,-1.42112 0.50508,-3.25319 0,-1.78925 0.22728,-3.39366 0.50508,-3.56534 0.27779,-0.17169 0.50507,-1.30811 0.50507,-2.52538 0,-1.21728 0.22729,-2.3537 0.50508,-2.52539 0.27779,-0.17168 0.50507,-0.96718 0.50507,-1.76776 0,-0.80059 0.22729,-1.59608 0.50508,-1.76777 0.27779,-0.17169 0.50508,-0.9806 0.50508,-1.79758 0,-0.81698 0.22728,-1.48542 0.50507,-1.48542 0.27779,0 0.50508,-0.45765 0.50508,-1.017 0,-0.55936 0.20077,-1.41167 0.44615,-1.89404 0.24538,-0.48236 0.67584,-1.44524 0.95658,-2.13972 1.83314,-4.53478 5.37137,-11.20433 6.80476,-12.82696 0.48613,-0.55031 0.88388,-1.29864 0.88388,-1.66295 0,-0.36431 0.17828,-0.66238 0.39618,-0.66238 0.2179,0 0.76691,-0.62503 1.22003,-1.38896 1.3583,-2.29001 3.89297,-5.20497 8.16822,-9.39373 4.646,-4.55202 4.34134,-4.69926 5.36577,2.59328 0.63691,4.53404 0.62394,4.72255 -0.39019,5.66735 -0.57696,0.53752 -1.69069,1.83609 -2.47495,2.8857 -0.78425,1.04961 -1.82367,2.34917 -2.3098,2.88792 -0.48614,0.53874 -0.88388,1.2776 -0.88388,1.64191 0,0.3643 -0.17047,0.66415 -0.37881,0.66631 -0.20835,0.002 -0.638,0.51356 -0.95478,1.13642 -0.31679,0.62287 -1.50428,2.95076 -2.63887,5.1731 -1.13459,2.22233 -2.06865,4.3929 -2.07568,4.82347 -0.007,0.43058 -0.19367,0.99879 -0.41475,1.26269 -0.47665,0.56897 -1.27358,3.05026 -2.10074,6.54074 -0.32915,1.38896 -0.86665,3.54816 -1.19445,4.79823 -0.37172,1.41757 -0.57344,5.97901 -0.53607,12.12183 0.0583,9.58224 0.17007,10.56841 2.17533,19.1929 0.69158,2.97444 3.0478,9.52966 4.09644,11.39667 0.54555,0.97132 0.99192,2.10005 0.99192,2.50829 0,0.40824 0.22728,0.74225 0.50507,0.74225 0.2778,0 0.50508,0.45457 0.50508,1.01015 0,0.55558 0.22728,1.01015 0.50508,1.01015 0.27779,0 0.50507,0.21511 0.50507,0.47802 0,0.59639 3.32229,6.30073 4.19088,7.19569 0.35233,0.36303 1.19854,1.45288 1.88048,2.4219 1.8308,2.60151 6.29389,7.40566 9.63451,10.37076 2.1191,1.88088 7.86868,6.30268 8.19527,6.30268 0.13161,0 1.68304,0.86823 3.44763,1.92939 3.41471,2.0535 10.72162,5.14891 12.14364,5.14439 0.46974,-0.002 0.97903,0.19946 1.13174,0.44655 0.15272,0.2471 1.13209,0.59557 2.17638,0.77438 1.0443,0.1788 3.26243,0.56706 4.92918,0.86278 4.46538,0.79228 15.93994,1.11602 16.58795,0.46801 0.29378,-0.29377 1.61169,-0.53413 2.92869,-0.53413 1.31701,0 2.53503,-0.22729 2.70672,-0.50508 0.17168,-0.27779 0.96718,-0.50507 1.76776,-0.50507 0.80059,0 1.59608,-0.22729 1.76777,-0.50508 0.17169,-0.27779 0.75639,-0.50508 1.29935,-0.50508 0.54296,0 1.38186,-0.20138 1.86423,-0.4475 0.48237,-0.24613 2.12709,-0.98154 3.65495,-1.63425 17.18001,-7.33938 29.71465,-24.45034 33.43943,-45.64795 1.00716,-5.73171 0.52338,-25.51747 -0.65391,-26.74379 -0.25335,-0.26391 -0.46064,-1.08612 -0.46064,-1.82716 0,-3.92752 -6.84205,-19.9333 -10.99966,-25.73173 -5.41233,-7.54837 -10.62584,-13.05402 -15.76938,-16.65305 -0.97227,-0.68031 -2.06479,-1.5252 -2.42782,-1.87753 -1.99284,-1.93411 -12.22191,-7.03186 -17.27016,-8.60674 -6.74761,-2.10502 -15.93746,-3.45838 -20.60803,-3.03486 l -2.94426,0.26697 -0.59337,-3.35292 c -0.32636,-1.84411 -0.73571,-3.86431 -0.90967,-4.48935 -0.28524,-1.02482 -0.13985,-1.13642 1.48057,-1.13642 0.98828,0 1.93734,-0.22728 2.10902,-0.50507 0.40716,-0.65879 8.68422,-0.65879 9.09138,0 0.17168,0.27779 2.21724,0.50507 4.54568,0.50507 2.32844,0 4.374,0.22729 4.54569,0.50508 0.17168,0.27779 1.20788,0.50508 2.30265,0.50508 1.09477,0 1.9905,0.22728 1.9905,0.50507 0,0.27779 0.78208,0.50508 1.73795,0.50508 0.95588,0 1.87843,0.22728 2.05012,0.50507 0.17168,0.2778 0.85354,0.50508 1.51523,0.50508 0.66169,0 1.34354,0.22729 1.51523,0.50508 0.17168,0.27779 0.85354,0.50507 1.51523,0.50507 0.66169,0 1.34354,0.22729 1.51522,0.50508 0.17169,0.27779 0.75332,0.50508 1.2925,0.50508 0.53919,0 0.98035,0.22728 0.98035,0.50507 0,0.27779 0.31944,0.50508 0.70988,0.50508 0.84121,0 5.02436,2.10605 5.26685,2.65165 0.0926,0.20834 0.60399,0.37881 1.13642,0.37881 0.53244,0 0.96807,0.22728 0.96807,0.50507 0,0.27779 0.23755,0.50508 0.52788,0.50508 0.50919,0 7.09925,4.29027 9.19926,5.9889 6.36048,5.14481 13.02439,11.68328 16.54594,16.23445 0.96726,1.25007 1.92911,2.34861 2.13746,2.44121 0.20834,0.0926 0.37881,0.49034 0.37881,0.88388 0,0.39354 0.22728,0.71552 0.50507,0.71552 0.27779,0 0.50508,0.23679 0.50508,0.5262 0,0.28941 0.45457,1.01412 1.01015,1.61047 0.55558,0.59635 1.01015,1.38234 1.01015,1.74664 0,0.36431 0.22729,0.66238 0.50508,0.66238 0.27779,0 0.50508,0.29807 0.50508,0.66238 0,0.3643 0.45456,1.1503 1.01015,1.74665 0.55558,0.59635 1.01015,1.4347 1.01015,1.863 0,0.4283 0.22728,0.77873 0.50508,0.77873 0.27779,0 0.50507,0.45457 0.50507,1.01016 0,0.55558 0.22729,1.01015 0.50508,1.01015 0.27779,0 0.50508,0.45457 0.50508,1.01015 0,0.55559 0.22728,1.01015 0.50507,1.01015 0.27779,0 0.50508,0.30601 0.50508,0.68002 0,0.37401 0.31614,1.33997 0.70253,2.14657 1.44543,3.01738 2.27426,5.09354 3.30754,8.28509 4.22157,13.03942 5.79189,22.58033 5.81905,35.35534 0.0206,9.67228 -0.54856,14.91163 -2.35914,21.71828 -0.5542,2.08344 -1.1251,4.30282 -1.26866,4.93196 -0.14356,0.62914 -0.46117,1.26758 -0.70579,1.41876 -0.24462,0.15119 -0.44318,0.65922 -0.44123,1.12897 0.005,1.07806 -4.99173,11.12746 -6.18461,12.43979 -0.4895,0.53852 -0.89,1.16309 -0.89,1.38794 0,0.22485 -0.90913,1.374 -2.0203,2.55367 -1.11117,1.17967 -2.02031,2.32022 -2.02031,2.53455 0,0.58135 -7.05471,7.51859 -9.09137,8.93999 -0.97227,0.67855 -1.88141,1.37539 -2.02031,1.54852 -0.66686,0.83121 -7.03652,4.81553 -10.74499,6.72115 -6.02896,3.09801 -14.05189,6.39725 -15.55652,6.39725 -0.50214,0 -1.05346,0.22729 -1.22514,0.50508 -0.17169,0.27779 -0.794,0.50507 -1.38291,0.50507 -0.58891,0 -1.76874,0.21362 -2.62184,0.47472 -4.9884,1.52669 -12.30813,2.04696 -20.74399,1.47444 z"
       id="path3675"
       inkscape:connector-curvature="0" />
    <path
       style="fill:#5fd3bc"
       d="m 565.4695,614.04949 c -0.17169,-0.27779 -1.30811,-0.50507 -2.52538,-0.50507 -1.21728,0 -2.3537,-0.22729 -2.52539,-0.50508 -0.17168,-0.27779 -0.75639,-0.50508 -1.29935,-0.50508 -0.54296,0 -1.4955,-0.26277 -2.11676,-0.58393 -2.37014,-1.22524 -2.90636,-1.43637 -3.6481,-1.43637 -0.42046,0 -0.76447,-0.20078 -0.76447,-0.44617 0,-0.24539 -0.39775,-0.57633 -0.88388,-0.73543 -1.01013,-0.33057 -4.78329,-2.52018 -6.77023,-3.92884 -0.73736,-0.52276 -1.48554,-0.95048 -1.66262,-0.95048 -0.17708,0 -0.80988,-0.45457 -1.40622,-1.01015 -0.59636,-0.55558 -1.38235,-1.01015 -1.74665,-1.01015 -0.36431,0 -0.66238,-0.22729 -0.66238,-0.50508 0,-0.27779 -0.28411,-0.51013 -0.63135,-0.51631 -0.34724,-0.006 -1.19955,-0.45569 -1.89403,-0.99892 -0.69448,-0.54323 -1.8309,-0.98699 -2.52538,-0.98614 -1.0633,0.002 -1.53095,0.55786 -2.96143,3.52431 l -1.69873,3.52275 -4.2061,0 c -2.31336,0 -4.34658,-0.22729 -4.51826,-0.50508 -0.17169,-0.27779 -0.7564,-0.50507 -1.29936,-0.50507 -0.54296,0 -1.43868,-0.22729 -1.99049,-0.50508 l -2.0066,-1.01015 c -0.55182,-0.2778 -1.34731,-0.50508 -1.76777,-0.50508 -0.42045,0 -0.76447,-0.22728 -0.76447,-0.50508 0,-0.27779 -0.44115,-0.50507 -0.98034,-0.50507 -0.53919,0 -1.12081,-0.22729 -1.2925,-0.50508 -0.17169,-0.27779 -0.75331,-0.50507 -1.2925,-0.50507 -0.53919,0 -0.98034,-0.22729 -0.98034,-0.50508 0,-0.27779 -0.45457,-0.50508 -1.01016,-0.50508 -0.55558,0 -1.01015,-0.22728 -1.01015,-0.50507 0,-0.2778 -0.45457,-0.50508 -1.01015,-0.50508 -0.55559,0 -1.01015,-0.22728 -1.01015,-0.50508 0,-0.27779 -0.45457,-0.50507 -1.01016,-0.50507 -0.55558,0 -1.01015,-0.22729 -1.01015,-0.50508 0,-0.27779 -0.45457,-0.50507 -1.01015,-0.50507 -0.55559,0 -1.01015,-0.22729 -1.01015,-0.50508 0,-0.27779 -0.45457,-0.50508 -1.01016,-0.50508 -0.55558,0 -1.01015,-0.22728 -1.01015,-0.50507 0,-0.2778 -0.31944,-0.50508 -0.70988,-0.50508 -0.39044,0 -1.69732,-0.48684 -2.90419,-1.08187 -1.20687,-0.59503 -2.76252,-1.3034 -3.457,-1.57416 -0.69448,-0.27076 -1.65735,-0.69305 -2.13972,-0.93843 -0.48236,-0.24538 -1.28922,-0.44615 -1.79302,-0.44615 -0.50379,0 -1.13191,-0.18636 -1.39581,-0.41413 -0.2639,-0.22777 -2.18446,-0.93668 -4.2679,-1.57537 -2.08344,-0.63868 -4.24264,-1.34434 -4.79822,-1.56813 -0.55558,-0.22379 -1.57836,-0.5194 -2.27284,-0.65691 -0.69448,-0.13751 -2.85368,-0.62707 -4.79823,-1.0879 -1.94454,-0.46084 -4.33103,-1.02606 -5.3033,-1.25605 -4.81662,-1.13937 -13.26837,-2.53288 -15.36212,-2.53288 -2.47062,0 -5.74405,-1.34211 -7.74512,-3.1755 -1.25017,-1.14541 -1.45122,-2.79525 -0.55249,-4.53377 0.32117,-0.62126 0.81122,-1.58414 1.08901,-2.13972 1.07573,-2.15146 1.63792,-3.04752 2.37325,-3.78267 0.41976,-0.41966 1.41011,-1.63215 2.20079,-2.69443 3.43579,-4.616 10.06649,-9.93923 14.93811,-11.99254 0.67902,-0.2862 2.72458,-1.16547 4.54569,-1.95393 1.82111,-0.78846 5.47031,-2.28383 8.10933,-3.32303 2.63902,-1.03921 6.50286,-2.6691 8.5863,-3.62198 8.33374,-3.81156 16.08675,-8.18634 16.58333,-9.35748 0.0926,-0.21838 0.44195,-0.39705 0.77633,-0.39705 0.87649,0 8.02018,-7.08527 9.75438,-9.67461 3.63157,-5.42232 6.15956,-11.83064 8.10227,-20.5388 1.37881,-6.18046 1.21869,-22.39421 -0.2902,-29.38559 -1.63205,-7.56202 -3.15872,-11.74132 -4.93957,-13.52217 -0.38066,-0.38066 -0.69212,-0.87897 -0.69212,-1.10735 0,-1.40457 -10.48868,-10.62429 -12.08657,-10.62429 -0.29718,0 -0.54034,-0.22728 -0.54034,-0.50508 0,-0.27779 -0.31944,-0.50507 -0.70988,-0.50507 -0.39044,0 -1.58368,-0.44146 -2.65165,-0.98102 -3.83536,-1.9377 -10.31084,-3.75966 -16.38712,-4.61074 l -4.34382,-0.60842 5.60651,-2.89136 c 3.26452,-1.68356 5.80695,-2.7094 6.08634,-2.45575 0.2639,0.23958 1.21645,0.43561 2.11677,0.43561 0.90031,0 1.77741,0.22728 1.9491,0.50508 0.17168,0.27779 0.7358,0.50507 1.25359,0.50507 1.08336,0 11.29125,5.60859 16.23445,8.91981 3.12176,2.09111 13.06832,11.70585 13.06969,12.63367 3.3e-4,0.22954 0.56854,1.07772 1.26269,1.88486 0.69414,0.80713 1.26207,1.64322 1.26207,1.85796 0,0.21474 0.28411,0.69957 0.63135,1.07739 1.43073,1.55675 4.92449,8.32365 4.92449,9.53802 0,0.52737 0.22728,0.95886 0.50508,0.95886 0.27779,0 0.50507,0.44115 0.50507,0.98034 0,0.53919 0.22729,1.12082 0.50508,1.2925 0.27779,0.17169 0.50508,1.08083 0.50508,2.02031 0,0.93948 0.22728,1.84862 0.50507,2.0203 0.27779,0.17169 0.50508,1.30811 0.50508,2.52538 0,1.21728 0.22728,2.3537 0.50507,2.52539 0.29601,0.18293 0.50508,3.10994 0.50508,7.07106 0,3.96112 -0.20907,6.88813 -0.50508,7.07107 -0.27779,0.17169 -0.50507,1.43517 -0.50507,2.80773 0,1.37257 -0.22729,2.49557 -0.50508,2.49557 -0.27779,0 -0.50507,0.6089 -0.50507,1.3531 0,1.86079 -1.84455,7.4482 -3.59447,10.88815 -0.24538,0.48237 -0.44615,1.2021 -0.44615,1.59941 0,0.39731 -0.17046,0.79813 -0.3788,0.89074 -0.34059,0.15136 -1.86584,2.80669 -3.35832,5.84652 -0.30581,0.62287 -0.72649,1.13426 -0.93483,1.13642 -0.20834,0.002 -0.37881,0.34487 -0.37881,0.76156 0,0.41668 -0.22728,0.75761 -0.50507,0.75761 -0.2778,0 -0.50508,0.34093 -0.50508,0.75762 0,0.41668 -0.17828,0.75761 -0.39618,0.75761 -0.2179,0 -0.77201,0.62503 -1.23135,1.38896 -2.15556,3.58485 -9.22232,11.13405 -14.28237,15.25741 -3.92609,3.19932 -12.57155,9.11252 -13.32306,9.11252 -0.2653,0 -0.55812,0.17046 -0.65072,0.37881 -0.3249,0.73102 -13.15138,7.1704 -20.87649,10.48078 -1.11116,0.47616 -3.27036,1.43335 -4.79822,2.12708 -1.52786,0.69373 -3.23249,1.44432 -3.78807,1.66799 -3.5215,1.41765 -5.75981,2.673 -6.03234,3.38321 -0.53575,1.39613 0.39139,1.6269 2.46072,0.61249 1.09132,-0.53498 2.49844,-0.97269 3.12692,-0.97269 0.62848,0 1.28316,-0.22729 1.45485,-0.50508 0.43978,-0.71158 25.12814,-0.68125 25.84114,0.0318 0.35145,0.35145 2.56651,0.43866 6.41447,0.25254 l 11.7553,-0.56856 c 3.84796,-0.18612 6.06302,-0.0989 6.41447,0.25253 0.30915,0.30916 2.73049,0.53682 5.70929,0.53682 2.9035,0 5.30941,0.22156 5.48464,0.50508 0.17168,0.27779 1.08082,0.50508 2.0203,0.50508 0.93948,0 1.84862,0.22728 2.02031,0.50507 0.17168,0.2778 0.69649,0.50536 1.16623,0.5057 2.01515,0.002 5.6523,5.1815 5.6523,8.05005 0,1.83228 1.17312,2.73744 4.54568,3.50735 1.52786,0.34879 3.23249,0.82346 3.78807,1.05482 0.55559,0.23137 2.37386,0.92326 4.04061,1.53756 1.66676,0.61429 3.71231,1.40947 4.54569,1.76707 0.83338,0.35761 4.46993,1.83218 8.08122,3.27682 7.34274,2.93736 9.84899,4.84872 9.84899,7.51123 0,0.83552 0.2279,1.65998 0.50644,1.83213 0.33854,0.20923 0.33854,0.62673 0,1.2593 -0.27854,0.52046 -0.50644,1.75673 -0.50644,2.74727 0,0.99053 -0.22729,1.80097 -0.50508,1.80097 -0.27779,0 -0.50507,0.31478 -0.50507,0.69952 0,0.80094 -2.12369,2.33093 -3.23542,2.33093 -0.41007,0 -0.88605,-0.22728 -1.05773,-0.50507 l 0,-3e-5 z"
       id="path3704"
       inkscape:connector-curvature="0" />
    <path
       style="fill:#ffffff"
       id="path3733"
       d="m 319.69921,420.12594 c -0.67205,1.50989 -1.40582,4.07755 -3.54031,4.22479 -2.28786,0.15782 -3.1121,-1.061 -3.68024,-2.8588 -0.1334,-0.42213 -0.035,-0.88472 -0.0525,-1.32708 -0.19765,-4.99609 6.75473,5.01218 5.04093,0.31506 l 0,0 c -0.36603,-1.00317 -1.45821,-1.3441 -2.53318,-1.02914 -0.45456,0.13318 -0.61015,0.75477 -1.02395,0.98526 -0.23446,0.13059 0.3326,-0.42598 0.45167,-0.6665 0.30636,-0.61885 0.54669,-1.26824 0.82004,-1.90236 1.97926,-4.59157 6.55074,-2.30917 4.51754,2.25877 z"
       inkscape:connector-curvature="0" />
    <text
       xml:space="preserve"
       style="font-style:normal;font-weight:normal;font-size:40px;line-height:125%;font-family:sans-serif;letter-spacing:0px;word-spacing:0px;fill:#000000;fill-opacity:1;stroke:none;stroke-width:1px;stroke-linecap:butt;stroke-linejoin:miter;stroke-opacity:1"
       x="160"
       y="578.36218"
       id="text3345"
       sodipodi:linespacing="125%"><tspan
         sodipodi:role="line"
         id="tspan3347"
         x="160"
         y="578.36218"
         style="font-style:normal;font-variant:normal;font-weight:bold;font-stretch:normal;font-family:sans-serif;-inkscape-font-specification:'sans-serif Bold'">PRIME</tspan></text>
    <text
       xml:space="preserve"
       style="font-style:normal;font-weight:normal;font-size:45.00392151px;line-height:125%;font-family:sans-serif;letter-spacing:0px;word-spacing:0px;fill:#000000;fill-opacity:1;stroke:none;stroke-width:1px;stroke-linecap:butt;stroke-linejoin:miter;stroke-opacity:1"
       x="189.42633"
       y="586.10504"
       id="text3349"
       sodipodi:linespacing="125%"
       transform="scale(0.93889495,1.0650819)"><tspan
         sodipodi:role="line"
         id="tspan3351"
         x="189.42633"
         y="586.10504"
         style="fill:#4d4d4d">SOUND</tspan></text>
  </g>
</svg>
