<?xml version="1.0" encoding="UTF-8" standalone="no"?>
<!-- Created with Inkscape (http://www.inkscape.org/) -->

<svg
   xmlns:dc="http://purl.org/dc/elements/1.1/"
   xmlns:cc="http://creativecommons.org/ns#"
   xmlns:rdf="http://www.w3.org/1999/02/22-rdf-syntax-ns#"
   xmlns:svg="http://www.w3.org/2000/svg"
   xmlns="http://www.w3.org/2000/svg"
   xmlns:sodipodi="http://sodipodi.sourceforge.net/DTD/sodipodi-0.dtd"
   xmlns:inkscape="http://www.inkscape.org/namespaces/inkscape"
   width="210mm"
   height="297mm"
   viewBox="0 0 744.09448819 1052.3622047"
   id="svg2"
   version="1.1"
   inkscape:version="0.91 r13725"
   sodipodi:docname="logo1.4.svg">
  <defs
     id="defs4" />
  <sodipodi:namedview
     id="base"
     pagecolor="#ffffff"
     bordercolor="#666666"
     borderopacity="1.0"
     inkscape:pageopacity="0.0"
     inkscape:pageshadow="2"
     inkscape:zoom="0.5"
     inkscape:cx="527.60251"
     inkscape:cy="493.21744"
     inkscape:document-units="px"
     inkscape:current-layer="layer1"
     showgrid="false"
     inkscape:window-width="1440"
     inkscape:window-height="781"
     inkscape:window-x="0"
     inkscape:window-y="1"
     inkscape:window-maximized="1"
     inkscape:snap-grids="true"
     inkscape:snap-text-baseline="false" />
  <metadata
     id="metadata7">
    <rdf:RDF>
      <cc:Work
         rdf:about="">
        <dc:format>image/svg+xml</dc:format>
        <dc:type
           rdf:resource="http://purl.org/dc/dcmitype/StillImage" />
        <dc:title></dc:title>
      </cc:Work>
    </rdf:RDF>
  </metadata>
  <g
     inkscape:label="Layer 1"
     inkscape:groupmode="layer"
     id="layer1">
    <path
       style="fill:#5fd3bc"
       d="m 313.65418,244.88959 c -2.24588,-8.32297 -7.75384,-34.81774 -9.94619,-47.84385 -2.15276,-12.7908 -2.29101,-15.09023 -1.84433,-30.67904 0.50971,-17.78908 2.7146,-34.71809 5.74039,-44.07414 0.38429,-1.18827 1.20033,-3.9105 1.81341,-6.04938 0.61307,-2.1389 1.43596,-4.25835 1.82863,-4.70989 0.39266,-0.45154 0.71392,-1.52627 0.71392,-2.38827 0,-0.862 0.36943,-2.24256 0.82097,-3.0679 0.45151,-0.82535 2.47124,-5.00063 4.48824,-9.27842 2.01701,-4.277787 3.88432,-7.972234 4.14956,-8.209879 0.26524,-0.237662 1.03348,-1.501545 1.70719,-2.80865 0.67368,-1.307104 1.54807,-2.376546 1.94304,-2.376546 0.395,0 0.71818,-0.586883 0.71818,-1.304161 0,-0.717297 1.16668,-2.524978 2.5926,-4.017062 1.42593,-1.4921 2.59259,-3.037585 2.59259,-3.434388 0,-1.498055 15.57038,-17.268616 22.03706,-22.320421 1.90124,-1.485239 4.10761,-3.238133 4.90304,-3.895305 3.59153,-2.967296 17.13899,-10.507566 25.58206,-14.238526 10.6925,-4.724964 26.75954,-10.41984 29.39761,-10.41984 0.99304,0 2.02046,-0.347818 2.28319,-0.772923 0.26272,-0.425087 1.93844,-0.993506 3.72383,-1.263131 1.7854,-0.269623 4.80172,-0.723711 6.70296,-1.009077 1.90124,-0.285364 4.23459,-0.864855 5.18521,-1.287769 0.95059,-0.422915 3.86729,-0.988836 6.48147,-1.257621 4.54382,-0.467179 11.64997,-1.283475 22.90127,-2.630686 14.50486,-1.736794 57.05361,8.610654 79.50241,19.334217 11.63044,5.555737 17.95751,9.940446 26.13051,18.108645 6.04366,6.040112 10.74747,12.25988 9.27171,12.25988 -0.55427,0 -5.60293,-3.351884 -6.4477,-4.280732 -0.23764,-0.261325 -1.50154,-1.026325 -2.80864,-1.700025 -1.3071,-0.673698 -2.37653,-1.548083 -2.37653,-1.943075 0,-0.39499 -0.41607,-0.718151 -0.92454,-0.718151 -0.50853,0 -2.62026,-1.16668 -4.69276,-2.592598 -2.07252,-1.425935 -4.18426,-2.592598 -4.69275,-2.592598 -0.50851,0 -0.92593,-0.291678 -0.92762,-0.648154 -0.002,-0.356476 -2.1392,-1.620377 -4.75002,-2.80865 -2.61082,-1.188273 -4.74833,-2.452156 -4.75002,-2.808648 -0.002,-0.356476 -0.54965,-0.648137 -1.2177,-0.648137 -0.66804,0 -2.90417,-0.832995 -4.96915,-1.851109 -2.06496,-1.018111 -4.62951,-2.184791 -5.69896,-2.592597 -3.59912,-1.372482 -6.68778,-2.666583 -8.19815,-3.434919 -0.82535,-0.419851 -2.26072,-0.763375 -3.18974,-0.763375 -0.92903,0 -1.90176,-0.344036 -2.16165,-0.764554 -0.25988,-0.420502 -1.54674,-0.979905 -2.85965,-1.243129 -1.31292,-0.263207 -4.13713,-0.912644 -6.27602,-1.443182 -15.69655,-3.893474 -31.39412,-5.441217 -43.20994,-4.260421 -4.99073,0.498746 -10.26836,1.271155 -11.72804,1.71645 -1.45968,0.445312 -3.86728,0.809657 -5.35023,0.809657 -1.48296,0 -2.93662,0.388883 -3.23039,0.864188 -0.29377,0.475324 -1.65487,0.864206 -3.02471,0.864206 -1.36981,0 -2.73092,0.388881 -3.02467,0.864204 -0.29377,0.475306 -1.29422,0.864189 -2.22325,0.864189 -0.92902,0 -2.36439,0.346688 -3.18973,0.770423 -0.82535,0.423736 -5.72673,2.768526 -10.89196,5.210622 -14.10036,6.66662 -26.15416,15.246304 -37.70749,26.839514 -10.74129,10.778386 -15.81818,18.579263 -22.01907,33.833454 -9.19339,22.61568 -10.69898,38.53588 -5.64797,59.72205 0.98985,4.1518 1.96239,10.17959 2.16121,13.39507 0.19882,3.2155 0.73226,7.59634 1.18546,9.73524 0.45318,2.13889 1.4366,7.38891 2.18536,11.66668 1.56553,8.94427 3.54968,16.01484 7.35248,26.20097 3.23683,8.67005 3.2652,9.4375 0.54714,14.80135 -2.67543,5.27968 -5.24777,7.11095 -13.41896,9.5531 -5.51161,1.64727 -9.15596,2.00071 -24.35422,2.36185 l -17.87272,0.42472 -1.01723,-3.76975 z"
       id="path3463"
       inkscape:connector-curvature="0" />
    <path
       style="fill:#5fd3bc"
       d="m 362.92356,346.17912 c -9.57716,-1.31247 -21.96941,-6.69859 -27.70396,-12.04113 -1.0893,-1.01483 -2.30633,-1.84515 -2.70452,-1.84515 -0.96427,0 -8.45628,-7.52282 -8.45628,-8.49107 0,-0.41733 -1.16668,-1.97959 -2.5926,-3.47166 -1.42592,-1.49211 -2.59261,-3.26738 -2.59261,-3.94507 0,-0.67769 -0.30498,-1.36176 -0.67775,-1.52021 -1.08065,-0.45928 -6.23583,-11.07623 -6.23583,-12.84245 0,-0.88158 -0.34592,-1.81667 -0.76872,-2.07797 -1.64093,-1.01417 -3.77504,-19.25751 -3.09022,-26.41708 0.57433,-6.00476 1.82244,-12.30822 2.99447,-15.12346 0.39576,-0.95063 5.51434,-14.99387 6.09336,-16.4198 21.43059,-22.87512 29.33906,16.58031 57.85762,-12.6506 l 6.55507,5.42219 c 8.08991,6.69173 18.95148,18.08285 24.03468,25.20643 5.02984,7.04881 10.40926,17.93513 12.11462,24.5163 1.51776,5.85728 1.85898,19.75573 0.50556,20.59219 -0.47531,0.29377 -0.86419,1.84933 -0.86419,3.4568 0,1.60747 -0.38891,3.16303 -0.86422,3.45679 -0.4753,0.29377 -0.8642,1.48338 -0.8642,2.6436 0,1.16022 -0.38888,2.10949 -0.86419,2.10949 -0.47531,0 -0.8642,0.77778 -0.8642,1.72841 0,0.95062 -0.38888,1.72839 -0.86419,1.72839 -0.47532,0 -0.86421,0.41604 -0.86421,0.92455 0,2.78127 -8.91626,13.03955 -14.69137,16.90262 -10.46368,6.99932 -22.43876,9.82342 -34.59212,8.15789 z"
       id="path3465"
       inkscape:connector-curvature="0"
       sodipodi:nodetypes="sssssscscssccssscscsssssss" />
    <ellipse
       style="fill:#5fd3bc"
       id="path3467"
       cx="476.52716"
       cy="113.0585"
       rx="30.679054"
       ry="32.407452" />
    <ellipse
       ry="32.407452"
       rx="30.679054"
       cy="113.92269"
       cx="568.9964"
       id="ellipse3509"
       style="fill:#5fd3bc" />
    <circle
       style="fill:#5fd3bc"
       id="path3639"
       cx="487.32968"
       cy="178.30553"
       r="7.7777872" />
    <circle
       style="fill:#5fd3bc"
       id="path3641"
       cx="611.77429"
       cy="158.42896"
       r="4.3209934" />
    <path
       style="fill:#5fd3bc"
       d="m 495.97169,180.03392 c 0,0 25.92596,26.79014 63.9507,12.96296 38.02474,-13.82717 48.39512,-31.11114 48.39512,-31.11114 l 3.4568,1.72839 c 0,0 -7.77778,19.01238 -24.19757,28.51856 -16.41978,9.50618 -23.33336,15.55558 -60.49391,14.69137 -37.16054,-0.86418 -38.02473,-21.60495 -38.02473,-21.60495 z"
       id="path3657"
       inkscape:connector-curvature="0" />
    <path
       style="fill:#5fd3bc"
       d=""
       id="path3659"
       inkscape:connector-curvature="0" />
    <path
       style="fill:#5fd3bc"
       d="m 355.16995,344.07692 c -19.75007,-5.94342 -33.90278,-19.41358 -42.44083,-40.39406 -3.34988,-8.23158 -4.50671,-16.39094 -4.02943,-28.42048 0.32754,-8.25593 0.86982,-11.35553 3.19298,-18.25059 l 2.79845,-8.30564 -3.48921,-15.45981 c -4.21136,-18.65955 -8.38254,-41.61082 -9.17062,-50.45987 -0.77583,-8.71164 0.92919,-35.7953 3.00777,-47.77712 4.48984,-25.88139 16.60899,-50.953533 33.17141,-68.625199 18.73383,-19.988481 39.30841,-31.705347 75.34285,-42.906408 2.40401,-0.747273 6.09847,-1.611667 8.2099,-1.920867 2.1114,-0.309199 5.78336,-1.092095 8.15991,-1.739771 6.05543,-1.65025 25.92164,-3.820978 34.96906,-3.820978 23.06395,0 70.49786,14.327739 88.54792,26.746521 7.66108,5.270969 22.1758,20.132975 20.9043,21.404473 -0.21487,0.214854 -3.8253,-1.925246 -8.02317,-4.755797 -7.26761,-4.900412 -9.67805,-6.370629 -19.79522,-12.073769 -6.07088,-3.422241 -24.93876,-11.444866 -26.91641,-11.444866 -0.89355,0 -2.04543,-0.420792 -2.55976,-0.935109 -1.08512,-1.085117 -11.89851,-3.641252 -23.41356,-5.53464 -4.40843,-0.724875 -13.19937,-1.338809 -19.53537,-1.364303 -19.85831,-0.0799 -35.72131,3.658465 -52.97673,12.484827 -25.93424,13.265705 -45.32562,31.465067 -54.80848,51.439363 -9.65934,20.346013 -13.86856,39.022483 -12.09434,53.663103 0.84979,7.01238 4.34723,27.27249 5.07224,29.38275 0.24495,0.71296 0.36636,2.30739 0.26981,3.54321 -0.32132,4.11259 5.12561,28.72423 8.59996,38.85843 1.8845,5.49679 3.42634,11.03848 3.42634,12.31484 0,2.31662 1.14981,3.09174 2.1605,1.45643 0.29376,-0.47531 1.06531,-0.86419 1.71458,-0.86419 1.70591,0 23.90676,21.68426 28.62383,27.95776 4.44672,5.91398 10.60577,17.71189 12.69941,24.32626 5.34719,16.89314 0.44432,35.71223 -12.83993,49.28453 -6.66652,6.81108 -15.0103,11.51976 -23.54288,13.28607 -7.49868,1.55228 -17.94433,1.09898 -25.23528,-1.0951 z"
       id="path3665"
       inkscape:connector-curvature="0" />
    <path
       style="fill:#5fd3bc"
       d="m 384.12061,449.70212 c -4.7531,-0.3226 -9.80866,-0.84443 -11.23459,-1.15965 -15.02177,-3.32074 -23.91998,-6.41219 -35.78881,-12.43387 -7.35723,-3.7327 -18.7794,-10.70691 -19.95201,-12.18237 -0.23766,-0.29903 -1.78865,-1.49242 -3.44667,-2.65198 -10.38792,-7.26499 -31.28121,-30.50708 -36.48464,-40.58629 -0.61345,-1.18825 -1.31044,-2.35495 -1.54885,-2.59259 -1.20884,-1.20501 -10.06833,-18.63087 -12.19245,-23.98151 -1.86244,-4.6915 -2.7518,-6.7955 -3.46532,-8.19816 -0.41985,-0.82535 -0.76338,-2.26073 -0.76338,-3.18973 0,-0.92905 -0.38889,-1.92948 -0.8642,-2.22325 -0.47531,-0.29373 -0.86419,-1.65486 -0.86419,-3.02469 0,-1.36982 -0.34593,-2.70439 -0.76871,-2.96568 -0.74126,-0.45811 -1.34505,-3.10664 -2.37767,-10.42939 -0.26809,-1.90124 -0.83651,-3.82623 -1.26314,-4.27779 -0.42663,-0.45155 -0.77567,-3.24803 -0.77567,-6.21443 0,-2.96639 -0.3889,-5.63379 -0.8642,-5.92756 -0.52691,-0.32566 -0.86419,-6.92255 -0.86419,-16.90287 0,-10.33639 0.31846,-16.36877 0.86419,-16.36877 0.48668,0 0.8642,-2.43158 0.8642,-5.56629 0,-3.06147 0.38888,-5.80664 0.8642,-6.1004 0.47531,-0.29377 0.86419,-2.23821 0.86419,-4.32098 0,-2.0828 0.3889,-4.02725 0.86421,-4.32101 0.4753,-0.29375 0.86418,-1.65488 0.86418,-3.02469 0,-1.36983 0.3889,-2.73093 0.86421,-3.02471 0.47531,-0.29375 0.8642,-1.67782 0.8642,-3.0757 0,-1.39786 0.38888,-2.54158 0.86419,-2.54158 0.47531,0 0.8642,-0.78306 0.8642,-1.74013 0,-0.95707 0.34353,-2.4154 0.76338,-3.24073 0.41985,-0.82534 1.15638,-2.47286 1.63674,-3.66113 3.13655,-7.75913 9.19055,-19.17089 11.64312,-21.94726 0.83177,-0.9416 1.51234,-2.22201 1.51234,-2.84535 0,-0.62334 0.30503,-1.13336 0.67787,-1.13336 0.37284,0 1.31221,-1.06943 2.0875,-2.37655 2.32409,-3.91826 6.66097,-8.90582 13.97604,-16.07291 7.94943,-7.78862 7.42814,-8.04056 9.18097,4.43717 1.08977,7.75786 1.06758,8.08041 -0.66763,9.69699 -0.98719,0.91971 -2.89281,3.1416 -4.23469,4.9375 -1.34187,1.79591 -3.12035,4.0195 -3.95214,4.94131 -0.83179,0.9218 -1.51234,2.18601 -1.51234,2.80934 0,0.62334 -0.29167,1.1364 -0.64816,1.14009 -0.35648,0.003 -1.09162,0.87872 -1.63364,1.94443 -0.54203,1.06575 -2.57387,5.04884 -4.51517,8.85133 -1.94131,3.80245 -3.53953,7.51636 -3.55156,8.25307 -0.0115,0.73673 -0.33136,1.70896 -0.70964,2.16051 -0.81556,0.97352 -2.17913,5.21906 -3.59442,11.19137 -0.56319,2.37654 -1.48286,6.071 -2.04374,8.20989 -0.63601,2.42551 -0.98116,10.23024 -0.91723,20.74076 0.0998,16.39547 0.291,18.08283 3.72205,32.83957 1.18331,5.08934 5.21487,16.3055 7.00911,19.49999 0.93346,1.66196 1.69721,3.59324 1.69721,4.29175 0,0.69852 0.38888,1.27002 0.86418,1.27002 0.47533,0 0.86421,0.77777 0.86421,1.72839 0,0.95061 0.38888,1.72839 0.8642,1.72839 0.47531,0 0.86419,0.36805 0.86419,0.81789 0,1.02044 5.68452,10.78072 7.17071,12.31203 0.60285,0.62115 2.05073,2.48591 3.21755,4.14392 3.13255,4.45127 10.769,12.67129 16.48489,17.74464 3.62585,3.21824 13.46352,10.78406 14.02232,10.78406 0.22519,0 2.87973,1.48556 5.899,3.30124 5.84266,3.51358 18.34497,8.80991 20.77808,8.80218 0.80374,-0.003 1.67514,0.34127 1.93643,0.76406 0.26131,0.42279 1.93705,1.01903 3.72384,1.32498 1.78683,0.30594 5.58211,0.97026 8.43396,1.47624 7.64038,1.35562 27.27365,1.90954 28.38242,0.80079 0.50267,-0.50266 2.75764,-0.91393 5.01106,-0.91393 2.25343,0 4.33751,-0.38889 4.63128,-0.8642 0.29373,-0.47531 1.65486,-0.86419 3.02467,-0.86419 1.36983,0 2.73094,-0.3889 3.02471,-0.8642 0.29377,-0.47531 1.2942,-0.86421 2.22321,-0.86421 0.92902,0 2.36441,-0.34457 3.18976,-0.76568 0.82533,-0.42113 3.6395,-1.67945 6.25371,-2.79624 29.39545,-12.55788 50.84253,-41.83517 57.21573,-78.10484 1.72328,-9.8071 0.89552,-43.66105 -1.11885,-45.75931 -0.43349,-0.45157 -0.78817,-1.85838 -0.78817,-3.12633 0,-6.72008 -11.70693,-34.10639 -18.8207,-44.02766 -9.26064,-12.91546 -18.1811,-22.33577 -26.98183,-28.4938 -1.66358,-1.16403 -3.5329,-2.60965 -4.15405,-3.2125 -3.40981,-3.30932 -20.91202,-12.0317 -29.5497,-14.72636 -11.54534,-3.60174 -27.26941,-5.91738 -35.26088,-5.19273 l -5.03771,0.45681 -1.01526,-5.73695 c -0.55842,-3.15531 -1.25882,-6.61193 -1.55648,-7.68138 -0.48805,-1.7535 -0.23928,-1.94446 2.5333,-1.94446 1.69098,0 3.31483,-0.38888 3.60859,-0.86418 0.69666,-1.1272 14.85893,-1.1272 15.55559,0 0.29374,0.4753 3.79375,0.86418 7.77777,0.86418 3.98403,0 7.48402,0.3889 7.77779,0.86421 0.29376,0.4753 2.06672,0.8642 3.93989,0.8642 1.87319,0 3.40581,0.38888 3.40581,0.86419 0,0.47531 1.33815,0.8642 2.97368,0.8642 1.63554,0 3.21404,0.38888 3.50781,0.86419 0.29374,0.47532 1.46043,0.86421 2.59259,0.86421 1.13217,0 2.29883,0.38891 2.5926,0.8642 0.29376,0.47531 1.46043,0.86419 2.5926,0.86419 1.13216,0 2.29882,0.38891 2.59258,0.86422 0.29377,0.4753 1.28895,0.8642 2.2115,0.8642 0.92257,0 1.67741,0.38888 1.67741,0.86419 0,0.47531 0.54657,0.8642 1.21462,0.8642 1.43933,0 8.59682,3.6035 9.01172,4.53704 0.15846,0.35648 1.03343,0.64816 1.94444,0.64816 0.91102,0 1.65639,0.38888 1.65639,0.86418 0,0.47531 0.40646,0.86421 0.90322,0.86421 0.87123,0 12.147,7.34076 15.74018,10.24717 10.88293,8.8029 22.28506,19.99039 28.31052,27.77755 1.65501,2.13891 3.30076,4.01855 3.65726,4.17698 0.35647,0.15846 0.64814,0.83898 0.64814,1.51235 0,0.67336 0.38889,1.22427 0.86419,1.22427 0.47531,0 0.86421,0.40516 0.86421,0.90034 0,0.49518 0.77779,1.73519 1.7284,2.75555 0.9506,1.02037 1.7284,2.36522 1.7284,2.98856 0,0.62334 0.38889,1.13334 0.8642,1.13334 0.47531,0 0.86421,0.51002 0.86421,1.13335 0,0.62333 0.77776,1.9682 1.72839,2.98857 0.95061,1.02037 1.72839,2.45481 1.72839,3.18764 0,0.73283 0.38888,1.33242 0.8642,1.33242 0.47531,0 0.86419,0.77779 0.86419,1.72842 0,0.9506 0.3889,1.72839 0.86421,1.72839 0.4753,0 0.8642,0.77778 0.8642,1.7284 0,0.95063 0.38888,1.72839 0.86419,1.72839 0.4753,0 0.8642,0.52358 0.8642,1.16353 0,0.63993 0.54092,2.29271 1.20204,3.67283 2.47318,5.16282 3.89132,8.71518 5.6593,14.17602 7.22321,22.31078 9.91008,38.63553 9.95655,60.4939 0.0352,16.54951 -0.9386,25.51418 -4.03656,37.16055 -0.94825,3.5648 -1.92507,7.36223 -2.17071,8.43871 -0.24563,1.07646 -0.78907,2.16886 -1.20763,2.42753 -0.41854,0.25868 -0.75829,1.12794 -0.75495,1.93169 0.008,1.84459 -8.54098,19.03938 -10.58202,21.2848 -0.83756,0.92143 -1.52282,1.99009 -1.52282,2.37481 0,0.38472 -1.55554,2.35096 -3.45678,4.3694 -1.90125,2.01844 -3.4568,3.96996 -3.4568,4.33669 0,0.99469 -12.07081,12.86449 -15.55558,15.29654 -1.66358,1.16103 -3.21914,2.35333 -3.4568,2.64956 -1.14102,1.42222 -12.03967,8.23949 -18.38497,11.50006 -10.3157,5.30079 -24.04314,10.94587 -26.61761,10.94587 -0.85917,0 -1.80249,0.38889 -2.09625,0.8642 -0.29375,0.47531 -1.35855,0.86419 -2.36619,0.86419 -1.00764,0 -3.02636,0.36551 -4.48604,0.81225 -8.53528,2.61222 -21.05953,3.50241 -35.49349,2.52281 z"
       id="path3675"
       inkscape:connector-curvature="0" />
    <path
       style="fill:#5fd3bc"
       d="m 721.1581,495.62639 c -0.29377,-0.47531 -2.23823,-0.86419 -4.32101,-0.86419 -2.08279,0 -4.02723,-0.3889 -4.321,-0.86421 -0.29376,-0.4753 -1.2942,-0.8642 -2.22322,-0.8642 -0.92901,0 -2.55884,-0.44961 -3.62183,-0.99912 -4.05537,-2.09641 -4.97287,-2.45766 -6.242,-2.45766 -0.71942,0 -1.30803,-0.34354 -1.30803,-0.76341 0,-0.41987 -0.68055,-0.98613 -1.51234,-1.25835 -1.72836,-0.56561 -8.18434,-4.31209 -11.58405,-6.72235 -1.26164,-0.89445 -2.54179,-1.6263 -2.84477,-1.6263 -0.303,0 -1.38572,-0.77777 -2.40608,-1.72839 -1.02039,-0.95059 -2.36524,-1.72839 -2.98857,-1.72839 -0.62333,0 -1.13335,-0.3889 -1.13335,-0.8642 0,-0.47531 -0.48612,-0.87284 -1.08025,-0.88341 -0.59415,-0.01 -2.05246,-0.7797 -3.24074,-1.70919 -1.18827,-0.92947 -3.13271,-1.68877 -4.32099,-1.68731 -1.81934,0.003 -2.6195,0.95451 -5.06709,6.03019 l -2.90657,6.02752 -7.19674,0 c -3.95822,0 -7.43711,-0.3889 -7.73087,-0.8642 -0.29375,-0.47531 -1.29421,-0.86419 -2.22323,-0.86419 -0.92901,0 -2.46161,-0.3889 -3.40579,-0.86421 l -3.43333,-1.7284 c -0.94419,-0.47533 -2.30528,-0.86421 -3.02471,-0.86421 -0.71939,0 -1.30803,-0.38888 -1.30803,-0.8642 0,-0.47531 -0.75482,-0.86419 -1.67738,-0.86419 -0.92257,0 -1.91774,-0.3889 -2.2115,-0.8642 -0.29377,-0.47531 -1.28894,-0.86419 -2.2115,-0.86419 -0.92257,0 -1.67739,-0.3889 -1.67739,-0.86421 0,-0.4753 -0.77778,-0.8642 -1.72841,-0.8642 -0.95061,0 -1.72839,-0.38888 -1.72839,-0.86419 0,-0.47532 -0.77778,-0.8642 -1.72839,-0.8642 -0.95063,0 -1.7284,-0.38888 -1.7284,-0.86421 0,-0.4753 -0.77777,-0.86418 -1.7284,-0.86418 -0.95062,0 -1.7284,-0.3889 -1.7284,-0.86421 0,-0.47531 -0.77779,-0.86419 -1.72839,-0.86419 -0.95063,0 -1.72841,-0.38889 -1.72841,-0.8642 0,-0.47531 -0.77778,-0.8642 -1.7284,-0.8642 -0.95062,0 -1.7284,-0.38889 -1.7284,-0.86419 0,-0.47533 -0.54655,-0.86421 -1.21462,-0.86421 -0.66805,0 -2.90415,-0.833 -4.96915,-1.85111 -2.06498,-1.01811 -4.72673,-2.23015 -5.915,-2.69343 -1.18828,-0.46328 -2.83578,-1.18583 -3.66112,-1.60567 -0.82533,-0.41985 -2.20589,-0.76337 -3.0679,-0.76337 -0.86201,0 -1.93674,-0.31888 -2.38828,-0.70859 -0.45153,-0.38972 -3.73766,-1.60269 -7.30249,-2.69551 -3.56482,-1.09279 -7.25926,-2.3002 -8.20988,-2.6831 -0.95061,-0.38292 -2.7006,-0.88871 -3.88888,-1.12399 -1.18827,-0.23529 -4.88272,-1.07294 -8.20989,-1.86142 -3.32717,-0.78852 -7.41051,-1.75563 -9.07409,-2.14915 -8.24136,-1.94949 -22.70253,-4.33382 -26.28499,-4.33382 -4.2273,0 -9.82822,-2.29638 -13.25209,-5.43336 -2.13909,-1.95982 -2.48309,-4.78276 -0.94534,-7.7574 0.54954,-1.063 1.38801,-2.7105 1.86332,-3.66111 1.84061,-3.68121 2.80253,-5.2144 4.0607,-6.47225 0.71823,-0.71805 2.41273,-2.79265 3.76561,-4.61024 5.87873,-7.8981 17.22403,-17.00629 25.5595,-20.51956 1.16181,-0.48969 4.66182,-1.99414 7.77779,-3.34322 3.11597,-1.34908 9.35984,-3.90769 13.87528,-5.68578 4.51542,-1.77813 11.12655,-4.56691 14.69137,-6.19731 14.25925,-6.52167 27.52485,-14.00705 28.37452,-16.01089 0.15846,-0.37366 0.75618,-0.67936 1.32832,-0.67936 1.49969,0 13.72273,-12.1231 16.69,-16.55352 6.21371,-9.27773 10.53916,-20.24253 13.86319,-35.14242 2.35918,-10.57492 2.08522,-38.31708 -0.49654,-50.27952 -2.79247,-12.93881 -5.40465,-20.08969 -8.45173,-23.13678 -0.65132,-0.65131 -1.18424,-1.50394 -1.18424,-1.89471 0,-2.40324 -17.9464,-18.17842 -20.68043,-18.17842 -0.50849,0 -0.92454,-0.38888 -0.92454,-0.86421 0,-0.4753 -0.54656,-0.86418 -1.21463,-0.86418 -0.66805,0 -2.70971,-0.75537 -4.53703,-1.67856 -6.5624,-3.31546 -17.64211,-6.43287 -28.0388,-7.88909 l -7.43238,-1.04102 9.59288,-4.94721 c 5.58568,-2.88061 9.93585,-4.63585 10.4139,-4.20185 0.45152,0.40994 2.08136,0.74535 3.62183,0.74535 1.54047,0 3.04121,0.38888 3.33496,0.8642 0.29376,0.47531 1.25899,0.86419 2.14494,0.86419 1.85365,0 19.31962,9.59644 27.77757,15.26202 5.34141,3.57795 22.36023,20.02901 22.36258,21.61654 5.5e-4,0.39275 0.97278,1.84401 2.16048,3.22504 1.1877,1.38104 2.15944,2.81159 2.15944,3.17902 0,0.36744 0.48612,1.197 1.08025,1.84345 2.44803,2.66363 8.42595,14.24197 8.42595,16.3198 0,0.90234 0.38888,1.64063 0.8642,1.64063 0.47531,0 0.86419,0.75482 0.86419,1.67739 0,0.92258 0.3889,1.91775 0.8642,2.2115 0.47531,0.29377 0.86421,1.84933 0.86421,3.4568 0,1.60747 0.38888,3.16305 0.86418,3.45679 0.47531,0.29377 0.86421,2.23821 0.86421,4.321 0,2.0828 0.38888,4.02723 0.86419,4.32101 0.50647,0.31299 0.8642,5.32118 0.8642,12.09876 0,6.77758 -0.35773,11.78576 -0.8642,12.09879 -0.47531,0.29375 -0.86419,2.45562 -0.86419,4.80409 0,2.34851 -0.3889,4.27 -0.86421,4.27 -0.4753,0 -0.86418,1.04184 -0.86418,2.31518 0,3.18385 -3.15609,12.74406 -6.15025,18.62992 -0.41985,0.82533 -0.76337,2.05682 -0.76337,2.73662 0,0.67981 -0.29166,1.36561 -0.64813,1.52408 -0.58277,0.25898 -3.19251,4.80232 -5.74618,10.00354 -0.52324,1.06575 -1.24304,1.94075 -1.59951,1.94446 -0.35648,0.003 -0.64816,0.59008 -0.64816,1.30304 0,0.71296 -0.38888,1.29629 -0.86419,1.29629 -0.47532,0 -0.8642,0.58334 -0.8642,1.29631 0,0.71295 -0.30504,1.29628 -0.67788,1.29628 -0.37282,0 -1.32093,1.06945 -2.10687,2.37655 -3.68822,6.13378 -15.77962,19.05066 -24.43751,26.10583 -6.71764,5.47413 -21.51024,15.59176 -22.7961,15.59176 -0.45394,0 -0.95496,0.29165 -1.1134,0.64816 -0.55592,1.25079 -22.50235,12.26874 -35.72021,17.93288 -1.90123,0.81473 -5.59567,2.4525 -8.20988,3.6395 -2.61422,1.18698 -5.53088,2.47126 -6.4815,2.85397 -6.02537,2.42564 -9.85517,4.57357 -10.32148,5.78876 -0.91668,2.38882 0.66967,2.78366 4.21036,1.04798 1.86727,-0.91536 4.27489,-1.6643 5.35024,-1.6643 1.07534,0 2.19552,-0.3889 2.48928,-0.86421 0.75247,-1.21752 42.9949,-1.16562 44.21486,0.0544 0.60134,0.60134 4.39137,0.75056 10.97533,0.43209 l 20.11362,-0.97281 c 6.58396,-0.31845 10.37399,-0.16922 10.97533,0.43209 0.52896,0.52897 4.67194,0.91851 9.76875,0.91851 4.96795,0 9.08453,0.37908 9.38436,0.8642 0.29374,0.47531 1.84932,0.86421 3.45679,0.86421 1.60747,0 3.16303,0.38888 3.4568,0.86419 0.29375,0.47532 1.19171,0.86468 1.99545,0.86527 3.44797,0.003 9.67123,8.86567 9.67123,13.77384 0,3.13507 2.00723,4.68383 7.77777,6.00115 2.61421,0.5968 5.53088,1.40898 6.48149,1.80484 0.95063,0.39588 4.06173,1.57971 6.91359,2.6308 2.85187,1.05106 6.35187,2.41165 7.7778,3.02351 1.42594,0.61187 7.64817,3.13491 13.82717,5.60671 12.56363,5.02591 16.85188,8.29629 16.85188,12.85191 0,1.42961 0.38994,2.84027 0.86653,3.13483 0.57926,0.35799 0.57926,1.07235 0,2.1547 -0.47659,0.89052 -0.86653,3.00581 -0.86653,4.70065 0,1.69483 -0.3889,3.0815 -0.86421,3.0815 -0.4753,0 -0.86419,0.53859 -0.86419,1.19689 0,1.37044 -3.63368,3.98829 -5.53587,3.98829 -0.70165,0 -1.51607,-0.38889 -1.8098,-0.86419 l 0,-5e-5 z"
       id="path3704"
       inkscape:connector-curvature="0" />
    <path
       style="fill:#ffffff"
       id="path3733"
       d="m 300.63871,163.81814 c -1.14989,2.58346 -2.40539,6.97679 -6.05755,7.22872 -3.91459,0.27004 -5.3249,-1.81539 -6.29699,-4.89147 -0.22826,-0.72228 -0.0598,-1.51379 -0.0898,-2.27067 -0.33818,-8.54844 11.55753,8.57597 8.62516,0.53907 l 0,0 c -0.62628,-1.71645 -2.49503,-2.2998 -4.33434,-1.76089 -0.77777,0.22788 -1.04397,1.29143 -1.75199,1.68582 -0.40117,0.22343 0.56907,-0.72887 0.77281,-1.14041 0.52419,-1.05887 0.93541,-2.16999 1.40311,-3.25498 3.38656,-7.8563 11.20848,-3.95105 7.72963,3.86481 z"
       inkscape:connector-curvature="0" />
    <text
       xml:space="preserve"
       style="font-style:normal;font-weight:normal;font-size:68.44104004px;line-height:125%;font-family:sans-serif;letter-spacing:0px;word-spacing:0px;fill:#000000;fill-opacity:1;stroke:none;stroke-width:1px;stroke-linecap:butt;stroke-linejoin:miter;stroke-opacity:1"
       x="27.3892"
       y="434.56448"
       id="text3345"
       sodipodi:linespacing="125%"><tspan
         sodipodi:role="line"
         id="tspan3347"
         x="27.3892"
         y="434.56448"
         style="font-style:normal;font-variant:normal;font-weight:bold;font-stretch:normal;font-family:sans-serif;-inkscape-font-specification:'sans-serif Bold'">PRIME</tspan></text>
    <text
       xml:space="preserve"
       style="font-style:normal;font-weight:normal;font-size:77.00288391px;line-height:125%;font-family:sans-serif;letter-spacing:0px;word-spacing:0px;fill:#000000;fill-opacity:1;stroke:none;stroke-width:1px;stroke-linecap:butt;stroke-linejoin:miter;stroke-opacity:1"
       x="61.703873"
       y="481.72778"
       id="text3349"
       sodipodi:linespacing="125%"
       transform="scale(0.93889494,1.0650819)"><tspan
         sodipodi:role="line"
         id="tspan3351"
         x="61.703873"
         y="481.72778"
         style="fill:#4d4d4d">SOUND</tspan></text>
  </g>
</svg>
